name pl14_filtered_grf.mot
datacolumns 37
datarows 15
range 1.990000 1.997000
endheader
time	1_ground_force_vx	1_ground_force_vy	1_ground_force_vz	1_ground_force_px	1_ground_force_py	1_ground_force_pz	1_ground_torque_x	1_ground_torque_y	1_ground_torque_z	2_ground_force_vx	2_ground_force_vy	2_ground_force_vz	2_ground_force_px	2_ground_force_py	2_ground_force_pz	2_ground_torque_x	2_ground_torque_y	2_ground_torque_z	3_ground_force_vx	3_ground_force_vy	3_ground_force_vz	3_ground_force_px	3_ground_force_py	3_ground_force_pz	3_ground_torque_x	3_ground_torque_y	3_ground_torque_z	4_ground_force_vx	4_ground_force_vy	4_ground_force_vz	4_ground_force_px	4_ground_force_py	4_ground_force_pz	4_ground_torque_x	4_ground_torque_y	4_ground_torque_z
            1.990000	           -5.322143	          442.437849	           22.890151	            0.127839	            0.000000	            0.246664	           -0.111904	            9.302717	            0.481289	           26.350897	          518.674493	           14.928785	           -0.127409	            0.000000	            0.254532	           -0.004414	           -0.086889	           -0.002501	           23.021259	            1.823507	            0.903900	            0.375886	            1.310598	            1.913900	           -0.093530	           -0.007408	           -0.003672	          -19.238749	           -0.957732	            2.067649	           -0.265183	            1.309960	            1.925324	            0.005146	            0.000256	           -0.000553
            1.990500	           -5.265038	          441.786351	           22.929850	            0.127807	            0.000000	            0.246572	           -0.110875	            9.303494	            0.482875	           26.339209	          518.111685	           15.041771	           -0.127362	            0.000000	            0.254424	           -0.004539	           -0.089278	           -0.002592	           23.034802	            1.824529	            0.908218	            0.375887	            1.310600	            1.913901	           -0.093110	           -0.007375	           -0.003671	          -19.240428	           -0.948632	            2.081655	           -0.265178	            1.309961	            1.925323	            0.005327	            0.000263	           -0.000576
            1.991000	           -5.209174	          441.136559	           22.966755	            0.127775	            0.000000	            0.246479	           -0.109865	            9.303901	            0.484386	           26.326782	          517.555806	           15.155418	           -0.127315	            0.000000	            0.254316	           -0.004660	           -0.091607	           -0.002683	           23.046098	            1.826187	            0.912533	            0.375889	            1.310603	            1.913903	           -0.092680	           -0.007344	           -0.003670	          -19.241300	           -0.938500	            2.095635	           -0.265174	            1.309962	            1.925322	            0.005498	            0.000268	           -0.000599
            1.991500	           -5.154551	          440.488818	           23.000875	            0.127744	            0.000000	            0.246386	           -0.108874	            9.303931	            0.485821	           26.313500	          517.007322	           15.269469	           -0.127268	            0.000000	            0.254208	           -0.004779	           -0.093895	           -0.002773	           23.055081	            1.828454	            0.916840	            0.375890	            1.310605	            1.913904	           -0.092244	           -0.007316	           -0.003668	          -19.241279	           -0.927437	            2.109399	           -0.265169	            1.309962	            1.925321	            0.005656	            0.000273	           -0.000620
            1.992000	           -5.101173	          439.843478	           23.032234	            0.127715	            0.000000	            0.246293	           -0.107900	            9.303579	            0.487178	           26.299249	          516.466655	           15.383661	           -0.127222	            0.000000	            0.254100	           -0.004897	           -0.096162	           -0.002864	           23.061706	            1.831290	            0.921125	            0.375892	            1.310608	            1.913906	           -0.091805	           -0.007290	           -0.003667	          -19.240285	           -0.915548	            2.122756	           -0.265164	            1.309963	            1.925320	            0.005801	            0.000276	           -0.000640
            1.992500	           -5.049044	          439.200896	           23.060865	            0.127686	            0.000000	            0.246200	           -0.106945	            9.302839	            0.488459	           26.283917	          515.934174	           15.497722	           -0.127175	            0.000000	            0.253992	           -0.005014	           -0.098430	           -0.002957	           23.065951	            1.834642	            0.925365	            0.375893	            1.310611	            1.913907	           -0.091366	           -0.007267	           -0.003665	          -19.238249	           -0.902941	            2.135519	           -0.265159	            1.309963	            1.925318	            0.005930	            0.000278	           -0.000658
            1.993000	           -4.998171	          438.561428	           23.086813	            0.127658	            0.000000	            0.246108	           -0.106009	            9.301707	            0.489662	           26.267393	          515.410198	           15.611379	           -0.127129	            0.000000	            0.253884	           -0.005133	           -0.100723	           -0.003051	           23.067832	            1.838452	            0.929141	            0.375896	            1.310613	            1.913909	           -0.090931	           -0.007247	           -0.003663	          -19.235121	           -0.889723	            2.147458	           -0.265155	            1.309964	            1.925317	            0.006043	            0.000280	           -0.000675
            1.993500	           -4.948566	          437.925432	           23.110136	            0.127631	            0.000000	            0.246016	           -0.105092	            9.300179	            0.490788	           26.249571	          514.894995	           15.724354	           -0.127083	            0.000000	            0.253776	           -0.005254	           -0.103065	           -0.003147	           23.067356	            1.842641	            0.932803	            0.375898	            1.310616	            1.913910	           -0.090502	           -0.007229	           -0.003660	          -19.230851	           -0.876006	            2.158438	           -0.265150	            1.309965	            1.925315	            0.006138	            0.000280	           -0.000689
            1.994000	           -4.900243	          437.293264	           23.130901	            0.127605	            0.000000	            0.245924	           -0.104195	            9.298252	            0.491837	           26.230352	          514.388774	           15.836369	           -0.127037	            0.000000	            0.253668	           -0.005379	           -0.105478	           -0.003247	           23.064569	            1.847128	            0.936304	            0.375900	            1.310619	            1.913912	           -0.090083	           -0.007214	           -0.003657	          -19.225410	           -0.861899	            2.168291	           -0.265145	            1.309966	            1.925313	            0.006216	            0.000279	           -0.000701
            1.994500	           -4.853221	          436.665275	           23.149185	            0.127581	            0.000000	            0.245832	           -0.103318	            9.295925	            0.492810	           26.209639	          513.891688	           15.947151	           -0.126991	            0.000000	            0.253560	           -0.005508	           -0.107987	           -0.003351	           23.059536	            1.851817	            0.939591	            0.375902	            1.310621	            1.913914	           -0.089677	           -0.007202	           -0.003654	          -19.218783	           -0.847508	            2.176856	           -0.265141	            1.309966	            1.925311	            0.006275	            0.000277	           -0.000711
            1.995000	           -4.807523	          436.041813	           23.165072	            0.127557	            0.000000	            0.245741	           -0.102461	            9.293198	            0.493709	           26.187345	          513.403833	           16.056428	           -0.126946	            0.000000	            0.253453	           -0.005642	           -0.110614	           -0.003459	           23.052343	            1.856609	            0.942604	            0.375904	            1.310624	            1.913916	           -0.089285	           -0.007191	           -0.003651	          -19.210972	           -0.832937	            2.183989	           -0.265136	            1.309967	            1.925309	            0.006317	            0.000274	           -0.000718
            1.995500	           -4.763177	          435.423214	           23.178658	            0.127535	            0.000000	            0.245651	           -0.101626	            9.290072	            0.494534	           26.163391	          512.925244	           16.163936	           -0.126900	            0.000000	            0.253346	           -0.005783	           -0.113382	           -0.003573	           23.043104	            1.861397	            0.945059	            0.375907	            1.310627	            1.913917	           -0.088910	           -0.007182	           -0.003646	          -19.201990	           -0.818282	            2.189612	           -0.265132	            1.309968	            1.925306	            0.006341	            0.000270	           -0.000723
            1.996000	           -4.720218	          434.809806	           23.190042	            0.127514	            0.000000	            0.245562	           -0.100813	            9.286549	            0.495287	           26.137707	          512.455894	           16.269421	           -0.126855	            0.000000	            0.253239	           -0.005932	           -0.116312	           -0.003693	           23.031930	            1.866069	            0.947110	            0.375910	            1.310630	            1.913919	           -0.088554	           -0.007175	           -0.003641	          -19.191879	           -0.803640	            2.193556	           -0.265128	            1.309969	            1.925304	            0.006347	            0.000266	           -0.000725
            1.996500	           -4.678686	          434.201903	           23.199332	            0.127494	            0.000000	            0.245474	           -0.100024	            9.282634	            0.495969	           26.110233	          511.995697	           16.372637	           -0.126810	            0.000000	            0.253133	           -0.006090	           -0.119425	           -0.003819	           23.018955	            1.870510	            0.948684	            0.375913	            1.310632	            1.913921	           -0.088219	           -0.007169	           -0.003636	          -19.180688	           -0.789098	            2.195722	           -0.265124	            1.309970	            1.925301	            0.006335	            0.000261	           -0.000725
            1.997000	           -4.638624	          433.599803	           23.206641	            0.127476	            0.000000	            0.245386	           -0.099259	            9.278332	            0.496584	           26.080920	          511.544504	           16.473353	           -0.126765	            0.000000	            0.253027	           -0.006258	           -0.122738	           -0.003953	           23.004325	            1.874604	            0.949709	            0.375915	            1.310635	            1.913922	           -0.087907	           -0.007163	           -0.003629	          -19.168488	           -0.774740	            2.196030	           -0.265119	            1.309970	            1.925299	            0.006308	            0.000255	           -0.000723
